<svg preserveAspectRatio="none" width="100%" height="100%" overflow="visible" style="display: block;" viewBox="0 0 48 30" fill="none" xmlns="http://www.w3.org/2000/svg">
<g id="Frame 1533209848">
<g clip-path="url(#clip0_0_13)">
<ellipse id="bg" cx="24" cy="15" rx="24" ry="15" fill="var(--fill-0, #216C58)"/>
<path id="Union" fill-rule="evenodd" clip-rule="evenodd" d="M0 15C0 6.71875 10.75 0 24 0C37.25 0 48 6.71875 48 15C48 23.2812 37.25 30 24 30C10.75 30 0 23.2812 0 15ZM1.2 15C1.2 22.8688 11.41 29.25 24 29.25C36.59 29.25 46.8 22.8688 46.8 15C46.8 7.13125 36.59 0.75 24 0.75C11.41 0.75 1.2 7.13125 1.2 15ZM43.5196 16.1064C43.5496 15.9064 43.8096 15.7501 44.1296 15.7501C44.4796 15.7501 44.7496 15.9376 44.7196 16.1501C43.7896 22.7876 34.8696 28.0001 23.9996 28.0001C13.1296 28.0001 4.20962 22.7939 3.27962 16.1501C3.24962 15.9314 3.51962 15.7501 3.86962 15.7501C4.18962 15.7501 4.44962 15.9064 4.47962 16.1064C5.36962 22.3501 13.7696 27.2501 23.9996 27.2501C34.2296 27.2501 42.6296 22.3564 43.5196 16.1064ZM3.86962 14.2501C4.18962 14.2501 4.44962 14.0939 4.47962 13.8939C5.36962 7.65012 13.7696 2.75012 23.9996 2.75012C34.2296 2.75012 42.6296 7.65012 43.5196 13.8939C43.5496 14.0939 43.8096 14.2501 44.1296 14.2501C44.4796 14.2501 44.7496 14.0689 44.7196 13.8501C43.7896 7.20637 34.8696 2.00012 23.9996 2.00012C13.1296 2.00012 4.20962 7.21262 3.27962 13.8501C3.24962 14.0626 3.51962 14.2501 3.86962 14.2501ZM17.2004 5.75012H32.4004C32.8422 5.75012 33.2004 5.97398 33.2004 6.25012V6.50012C33.2004 6.77626 32.8422 7.00012 32.4004 7.00012H17.2004C16.7586 7.00012 16.4004 6.77626 16.4004 6.50012V6.25012C16.4004 5.97398 16.7586 5.75012 17.2004 5.75012ZM24 8.25V7.5H22V8.35625C22.64 8.3 23.3 8.2625 24 8.25ZM22 17.0538V20.2375C22 20.2375 22.03 20.2438 22.05 20.25C22.62 20.3688 23.27 20.4438 24 20.4563V17.3341L24.5596 17.4125C24.7584 17.4374 24.9319 17.4662 25.1103 17.4958C25.1563 17.5034 25.2025 17.5111 25.2496 17.5188V20.45C25.7196 20.4188 26.1396 20.3625 26.4996 20.2813C26.7896 20.2125 27.0396 20.1438 27.2496 20.0625V17.9188C27.7496 18.0563 28.1496 18.2188 28.4296 18.4C28.7796 18.625 28.9396 18.8938 28.9396 19.2125C28.9396 19.5563 28.7496 19.8625 28.3696 20.1313C27.9896 20.3938 27.4596 20.6 26.7796 20.7563C26.0996 20.9063 25.2996 20.9813 24.3796 20.9813C23.4596 20.9813 22.5996 20.9063 21.8496 20.7438C21.1196 20.5813 20.5196 20.3375 20.0796 20.0188C19.7896 19.8 19.5896 19.5563 19.4596 19.2688C19.3496 19.0125 19.0096 18.8063 18.5996 18.8063H14.8896C14.4396 18.8063 14.0796 19.0438 14.1296 19.3125C14.2796 20.125 14.7096 20.8188 15.4196 21.4C16.2896 22.0938 17.4796 22.625 19.0196 22.975C20.0196 23.2063 21.1496 23.3563 22.3796 23.4375C22.3396 23.435 22.2979 23.4345 22.2559 23.434C22.1931 23.4333 22.1296 23.4325 22.0696 23.425V24.5125C22.0696 24.7875 22.4296 25.0125 22.8696 25.0125H23.2696C23.7096 25.0125 24.0696 24.7875 24.0696 24.5125V23.5125C24.0146 23.5125 23.9621 23.5094 23.9096 23.5063C23.8571 23.5031 23.8046 23.5 23.7496 23.5C23.8696 23.5 23.9871 23.5047 24.1046 23.5094C24.2221 23.5141 24.3396 23.5188 24.4596 23.5188C24.8021 23.5188 25.1188 23.5081 25.4416 23.4966C25.4258 23.4976 25.4102 23.4988 25.3946 23.5C25.3546 23.5031 25.3146 23.5063 25.2696 23.5063V24.5125C25.2696 24.7875 25.6296 25.0125 26.0696 25.0125H26.4696C26.9096 25.0125 27.2696 24.7875 27.2696 24.5125V23.3938C27.2528 23.3938 27.2351 23.3938 27.217 23.394C28.174 23.3067 29.0565 23.1784 29.8296 22.9875C31.3296 22.6313 32.4697 22.1375 33.2496 21.4938L33.1896 21.4813C33.9896 20.8313 34.3897 20.075 34.3997 19.1938C34.3997 18.5938 34.1897 18.0688 33.8097 17.6063C33.4296 17.1438 32.8896 16.7375 32.2096 16.4C31.5196 16.0625 30.7096 15.775 29.7696 15.5375C28.8296 15.3063 27.7996 15.1188 26.6796 14.975L24.3696 14.6688C23.8096 14.6 23.2896 14.5125 22.7896 14.4188C22.2996 14.3125 21.8696 14.1938 21.4896 14.0625C21.1096 13.9188 20.8096 13.7563 20.5996 13.5688V13.5563C20.3996 13.3688 20.2996 13.15 20.3196 12.9C20.3196 12.5938 20.4796 12.3063 20.7996 12.0625C21.0896 11.8438 21.5096 11.6688 22.0396 11.5375V13.675C22.3296 13.775 22.6696 13.8625 23.0596 13.9438C23.3696 14.0063 23.6996 14.0625 24.0396 14.1125V11.3063C24.1034 11.3063 24.1696 11.3048 24.2371 11.3032C24.3071 11.3016 24.3784 11.3 24.4496 11.3C24.7296 11.3 24.9896 11.3125 25.2396 11.325V14.275L26.8696 14.4938C26.9296 14.5031 26.9921 14.5109 27.0546 14.5188C27.1171 14.5266 27.1796 14.5344 27.2396 14.5438V11.6688C27.2798 11.6824 27.32 11.6945 27.3596 11.7063C27.4286 11.727 27.4961 11.7472 27.5596 11.775C28.1196 12 28.4996 12.2938 28.6996 12.6563C28.8296 12.8938 29.1596 13.0875 29.5696 13.0875H33.2696C33.7296 13.0875 34.0896 12.8563 34.0196 12.575C33.8797 11.925 33.4896 11.35 32.8496 10.825C32.0496 10.1813 30.9296 9.66876 29.4996 9.30626C28.0696 8.93751 26.3996 8.76251 24.4896 8.76251C22.5796 8.76251 20.9296 8.94376 19.4596 9.30626C17.9796 9.66876 16.8196 10.175 15.9696 10.825C15.1296 11.4688 14.7196 12.2313 14.7196 13.1063C14.7196 14.1688 15.3396 15.0125 16.5996 15.6375C17.8596 16.2625 19.5696 16.725 21.7496 17.0188L22 17.0538ZM27.1992 8.38125V7.5H25.1992V8.25625C25.8892 8.275 26.5592 8.3125 27.1992 8.38125Z" fill="var(--fill-0, white)"/>
</g>
</g>
<defs>
<clipPath id="clip0_0_13">
<rect width="48" height="30" rx="15" fill="white"/>
</clipPath>
</defs>
</svg>
