<svg preserveAspectRatio="none" overflow="visible" style="display: block;" width="82.1798" height="28.8196" viewBox="0 0 82.1798 28.8196" fill="none" xmlns="http://www.w3.org/2000/svg">
<path id="Ellipse 27" d="M41.0898 0.25C52.416 0.25 62.6597 1.85996 70.0625 4.45605C73.7649 5.75445 76.7431 7.29521 78.791 8.99316C80.8406 10.6925 81.9297 12.5246 81.9297 14.4102C81.9295 16.2956 80.8404 18.127 78.791 19.8262C76.7431 21.5242 73.7649 23.0649 70.0625 24.3633C62.6597 26.9594 52.416 28.5693 41.0898 28.5693C29.7639 28.5693 19.5209 26.9593 12.1182 24.3633C8.4156 23.0648 5.43667 21.5242 3.38867 19.8262C1.33927 18.127 0.250141 16.2956 0.25 14.4102C0.25 12.5246 1.33913 10.6925 3.38867 8.99316C5.43667 7.29516 8.41566 5.75448 12.1182 4.45605C19.5209 1.86008 29.764 0.250005 41.0898 0.25Z" stroke="white" stroke-width="0.5"/>
</svg>
